<svg width="120" height="120" viewBox="0 0 120 120" fill="none" xmlns="http://www.w3.org/2000/svg">
<path d="M96.0426 76.2024C96.002 76.2024 95.9817 76.2227 95.9817 76.2634V79.8106C95.9817 79.8512 96.002 79.8715 96.0426 79.8715H96.7679C98.2388 79.8715 98.9743 79.2275 98.9743 77.9395C98.9743 77.3137 98.7447 76.8586 98.2855 76.5742C97.8873 76.3264 97.3429 76.2024 96.6521 76.2024H96.0426ZM96.8654 75.6295C97.6618 75.6295 98.2632 75.6986 98.6695 75.8367C99.6975 76.1862 100.212 76.9115 100.212 78.0126C100.212 78.7481 99.8824 79.3494 99.2241 79.8167C98.639 80.2271 97.9605 80.4404 97.1885 80.4566L95.9817 80.2433V83.4187C95.9817 83.4553 96.002 83.4756 96.0426 83.4797L97.225 83.5772C97.2697 83.5813 97.2921 83.6036 97.2921 83.6443V83.9673C97.2921 84.0079 97.2697 84.0282 97.225 84.0282H93.7449C93.7042 84.0282 93.6839 84.0079 93.6839 83.9673V83.6443C93.6839 83.5996 93.7042 83.5772 93.7449 83.5772L94.8054 83.4797C94.846 83.4797 94.8663 83.4594 94.8663 83.4187V76.239C94.8663 76.1984 94.846 76.1781 94.8054 76.1781L93.7449 76.0744C93.7042 76.0744 93.6839 76.0541 93.6839 76.0135V75.6905C93.6839 75.6498 93.7042 75.6295 93.7449 75.6295H96.8654Z" fill="#EBAF2F"/>
<path d="M85.6204 76.239C85.6204 76.1984 85.6001 76.1781 85.5595 76.1781L84.5111 76.0744C84.4705 76.0744 84.4502 76.0541 84.4502 76.0135V75.6905C84.4502 75.6498 84.4705 75.6295 84.5111 75.6295H87.8938C87.9344 75.6295 87.9547 75.6498 87.9547 75.6905V76.0135C87.9547 76.0541 87.9344 76.0744 87.8938 76.0744L86.7723 76.1781C86.7276 76.1781 86.7053 76.1984 86.7053 76.239V80.7431C86.7053 81.3648 86.7398 81.8442 86.8089 82.1815C86.8617 82.4415 86.9694 82.665 87.1319 82.8519C87.5667 83.3517 88.1945 83.6016 89.0152 83.6016C89.897 83.6016 90.5552 83.2521 90.99 82.5533C91.1281 82.3339 91.2195 81.9905 91.2642 81.5232C91.2886 81.2713 91.3008 80.9666 91.3008 80.609V76.239C91.3008 76.1984 91.2805 76.1781 91.2399 76.1781L90.1794 76.0744C90.1387 76.0744 90.1184 76.0541 90.1184 76.0135V75.6905C90.1184 75.6498 90.1387 75.6295 90.1794 75.6295H93.0744C93.115 75.6295 93.1354 75.6498 93.1354 75.6905V76.0135C93.1354 76.0541 93.115 76.0744 93.0744 76.0744L92.0505 76.1781C92.0098 76.1781 91.9895 76.1984 91.9895 76.239V80.5603C91.9895 81.9255 91.7092 82.8783 91.1484 83.4187C90.604 83.9429 89.836 84.205 88.8446 84.205C87.7272 84.205 86.8861 83.9246 86.3213 83.3639C86.0735 83.116 85.9028 82.858 85.8093 82.5898C85.6834 82.2282 85.6204 81.763 85.6204 81.1941V76.239Z" fill="#EBAF2F"/>
<path d="M79.5926 75.4401C80.8522 75.4401 81.87 75.8545 82.6461 76.6834C83.4059 77.492 83.7858 78.5302 83.7858 79.7979C83.7858 81.0575 83.4039 82.0997 82.64 82.9245C81.8558 83.7778 80.84 84.2045 79.5926 84.2045C78.3411 84.2045 77.3131 83.792 76.5086 82.9672C75.704 82.1424 75.3018 81.1022 75.3018 79.8466C75.3018 78.5789 75.698 77.5306 76.4903 76.7017C77.2989 75.8606 78.333 75.4401 79.5926 75.4401ZM79.4463 76.0008C78.5117 76.0008 77.7743 76.3685 77.2339 77.104C76.7503 77.7663 76.5086 78.5809 76.5086 79.548C76.5086 80.2428 76.6264 80.8868 76.8621 81.4801C77.1262 82.1383 77.5122 82.6645 78.0201 83.0586C78.528 83.4487 79.107 83.6437 79.7571 83.6437C80.6957 83.6437 81.419 83.2659 81.9269 82.5101C82.3617 81.8559 82.579 81.0351 82.579 80.0478C82.579 78.9426 82.3048 78.006 81.7562 77.238C81.1671 76.4132 80.3971 76.0008 79.4463 76.0008Z" fill="#EBAF2F"/>
<path d="M73.461 77.75C73.4204 77.75 73.4 77.7338 73.4 77.7013L73.1502 76.2994C73.1502 76.2751 73.1319 76.2547 73.0953 76.2385C72.7377 76.08 72.3517 76.0008 71.9373 76.0008C71.5066 76.0008 71.1409 76.1146 70.8402 76.3421C70.507 76.594 70.3404 76.9292 70.3404 77.3478C70.3404 77.75 70.4887 78.0913 70.7853 78.3717C70.9844 78.5586 71.3095 78.7557 71.7605 78.9629L72.5711 79.3347C73.205 79.6272 73.6662 79.9238 73.9547 80.2245C74.3163 80.6024 74.4971 81.0717 74.4971 81.6324C74.4971 82.4695 74.1761 83.1196 73.5341 83.5828C72.9612 83.9972 72.242 84.2045 71.3766 84.2045C70.9337 84.2045 70.4237 84.1395 69.8467 84.0094C69.6842 83.9729 69.5359 83.9282 69.4018 83.8753C69.3612 83.8591 69.3409 83.8388 69.3409 83.8144V81.9311C69.3409 81.8905 69.3612 81.8701 69.4018 81.8701H69.9138C69.9544 81.8823 69.9747 81.8986 69.9747 81.9189L70.2246 83.3268C70.2287 83.339 70.2368 83.3492 70.249 83.3573L70.2795 83.3938C70.572 83.5401 70.9784 83.6133 71.4984 83.6133C72.0104 83.6133 72.4391 83.4934 72.7845 83.2537C73.1786 82.9814 73.3757 82.5995 73.3757 82.1078C73.3757 81.4252 72.9206 80.8706 72.0104 80.4439L71.1876 80.06C70.5863 79.7796 70.1393 79.4931 69.8467 79.2006C69.4607 78.8146 69.2677 78.3595 69.2677 77.8353C69.2677 77.3112 69.4282 76.8459 69.7492 76.4396C70.0621 76.0455 70.4725 75.7651 70.9804 75.5985C71.3054 75.4929 71.6488 75.4401 72.0104 75.4401C72.4939 75.4401 72.9897 75.499 73.4976 75.6168C73.6357 75.6493 73.786 75.69 73.9486 75.7387C73.9892 75.7468 74.0095 75.7672 74.0095 75.7997V77.6891C74.0095 77.7297 73.9892 77.75 73.9486 77.75H73.461Z" fill="#EBAF2F"/>
<path d="M61.0277 75.4401C62.2873 75.4401 63.3051 75.8545 64.0812 76.6834C64.841 77.492 65.2209 78.5302 65.2209 79.7979C65.2209 81.0575 64.839 82.0997 64.0751 82.9245C63.2909 83.7778 62.2751 84.2045 61.0277 84.2045C59.7762 84.2045 58.7482 83.792 57.9437 82.9672C57.1391 82.1424 56.7369 81.1022 56.7369 79.8466C56.7369 78.5789 57.133 77.5306 57.9254 76.7017C58.734 75.8606 59.7681 75.4401 61.0277 75.4401ZM60.8814 76.0008C59.9468 76.0008 59.2094 76.3685 58.6689 77.104C58.1854 77.7663 57.9437 78.5809 57.9437 79.548C57.9437 80.2428 58.0615 80.8868 58.2972 81.4801C58.5613 82.1383 58.9473 82.6645 59.4552 83.0586C59.9631 83.4487 60.5421 83.6437 61.1922 83.6437C62.1308 83.6437 62.8541 83.2659 63.362 82.5101C63.7968 81.8559 64.0141 81.0351 64.0141 80.0478C64.0141 78.9426 63.7399 78.006 63.1913 77.238C62.6022 76.4132 61.8322 76.0008 60.8814 76.0008Z" fill="#EBAF2F"/>
<path d="M55.731 75.6295C55.7717 75.6295 55.792 75.6498 55.792 75.6905V76.0135C55.792 76.0541 55.7717 76.0744 55.731 76.0744L54.6705 76.1781C54.6299 76.1781 54.6096 76.1984 54.6096 76.239V83.4187C54.6096 83.4594 54.6299 83.4797 54.6705 83.4797L55.731 83.5772C55.7717 83.5772 55.792 83.5996 55.792 83.6443V83.9673C55.792 84.0079 55.7717 84.0282 55.731 84.0282H52.3728C52.3321 84.0282 52.3118 84.0079 52.3118 83.9673V83.6443C52.3118 83.5996 52.3321 83.5772 52.3728 83.5772L53.4333 83.4797C53.4739 83.4797 53.4942 83.4594 53.4942 83.4187V76.239C53.4942 76.1984 53.4739 76.1781 53.4333 76.1781L52.3728 76.0744C52.3321 76.0744 52.3118 76.0541 52.3118 76.0135V75.6905C52.3118 75.6498 52.3321 75.6295 52.3728 75.6295H55.731Z" fill="#EBAF2F"/>
<path d="M45.5404 83.3944C45.5404 83.435 45.5608 83.4553 45.6014 83.4553H46.4851C47.7407 83.4553 48.6529 83.2339 49.2217 82.791C49.8597 82.2871 50.1786 81.4257 50.1786 80.2068C50.1786 77.5372 49.0145 76.2024 46.6863 76.2024H45.6014C45.5608 76.2024 45.5404 76.2227 45.5404 76.2634V83.3944ZM44.4495 76.2878C44.4495 76.2471 44.4291 76.2268 44.3885 76.2268L43.328 76.1293C43.2874 76.1293 43.2671 76.1069 43.2671 76.0623V75.6905C43.2671 75.6498 43.2874 75.6295 43.328 75.6295H46.6863C48.1247 75.6295 49.2461 75.9566 50.0506 76.6108C50.9283 77.3219 51.3671 78.3803 51.3671 79.7862C51.3671 82.6142 49.7439 84.0282 46.4973 84.0282H43.328C43.2874 84.0282 43.2671 84.0079 43.2671 83.9673V83.5894C43.2671 83.5488 43.2874 83.5285 43.328 83.5285L44.3885 83.4309C44.4291 83.4309 44.4495 83.4086 44.4495 83.3639V76.2878Z" fill="#EBAF2F"/>
<path d="M35.2036 76.239C35.2036 76.1984 35.1833 76.1781 35.1426 76.1781L34.0943 76.0744C34.0537 76.0744 34.0334 76.0541 34.0334 76.0135V75.6905C34.0334 75.6498 34.0537 75.6295 34.0943 75.6295H37.477C37.5176 75.6295 37.5379 75.6498 37.5379 75.6905V76.0135C37.5379 76.0541 37.5176 76.0744 37.477 76.0744L36.3555 76.1781C36.3108 76.1781 36.2885 76.1984 36.2885 76.239V80.7431C36.2885 81.3648 36.323 81.8442 36.3921 82.1815C36.4449 82.4415 36.5526 82.665 36.7151 82.8519C37.1499 83.3517 37.7777 83.6016 38.5984 83.6016C39.4802 83.6016 40.1384 83.2521 40.5732 82.5533C40.7113 82.3339 40.8027 81.9905 40.8474 81.5232C40.8718 81.2713 40.884 80.9666 40.884 80.609V76.239C40.884 76.1984 40.8637 76.1781 40.8231 76.1781L39.7625 76.0744C39.7219 76.0744 39.7016 76.0541 39.7016 76.0135V75.6905C39.7016 75.6498 39.7219 75.6295 39.7625 75.6295H42.6576C42.6982 75.6295 42.7185 75.6498 42.7185 75.6905V76.0135C42.7185 76.0541 42.6982 76.0744 42.6576 76.0744L41.6337 76.1781C41.593 76.1781 41.5727 76.1984 41.5727 76.239V80.5603C41.5727 81.9255 41.2924 82.8783 40.7316 83.4187C40.1872 83.9429 39.4192 84.205 38.4278 84.205C37.3104 84.205 36.4693 83.9246 35.9045 83.3639C35.6566 83.116 35.486 82.858 35.3925 82.5898C35.2666 82.2282 35.2036 81.763 35.2036 81.1941V76.239Z" fill="#EBAF2F"/>
<path d="M33.5277 75.6295C33.5684 75.6295 33.5887 75.6498 33.5887 75.6905V77.6469C33.5887 77.6916 33.5684 77.714 33.5277 77.714H33.0645C33.0239 77.714 33.0036 77.6977 33.0036 77.6652L32.7537 76.2512C32.7537 76.2187 32.7334 76.2024 32.6927 76.2024H30.6692C30.6367 76.2024 30.6205 76.2227 30.6205 76.2634V83.4187C30.6205 83.4553 30.6408 83.4756 30.6814 83.4797L31.8638 83.5772C31.9085 83.5813 31.9309 83.6036 31.9309 83.6443V83.9673C31.9309 84.0079 31.9085 84.0282 31.8638 84.0282H28.2862C28.2415 84.0282 28.2191 84.0079 28.2191 83.9673V83.6443C28.2191 83.6036 28.2415 83.5813 28.2862 83.5772L29.4686 83.4797C29.5092 83.4756 29.5295 83.4553 29.5295 83.4187V76.2634C29.5295 76.2227 29.5133 76.2024 29.4807 76.2024H27.4573C27.4166 76.2024 27.3963 76.2187 27.3963 76.2512L27.1464 77.6652C27.1464 77.6977 27.1261 77.714 27.0855 77.714H26.6223C26.5816 77.714 26.5613 77.6916 26.5613 77.6469V75.6905C26.5613 75.6498 26.5816 75.6295 26.6223 75.6295H33.5277Z" fill="#EBAF2F"/>
<path d="M24.9461 77.75C24.9055 77.75 24.8852 77.7338 24.8852 77.7013L24.6353 76.2994C24.6353 76.2751 24.617 76.2547 24.5804 76.2385C24.2229 76.08 23.8369 76.0008 23.4224 76.0008C22.9917 76.0008 22.626 76.1146 22.3253 76.3421C21.9922 76.594 21.8256 76.9292 21.8256 77.3478C21.8256 77.75 21.9739 78.0913 22.2705 78.3717C22.4696 78.5586 22.7946 78.7557 23.2457 78.9629L24.0563 79.3347C24.6901 79.6272 25.1513 79.9238 25.4398 80.2245C25.8014 80.6024 25.9823 81.0717 25.9823 81.6324C25.9823 82.4695 25.6613 83.1196 25.0193 83.5828C24.4464 83.9972 23.7272 84.2045 22.8617 84.2045C22.4188 84.2045 21.9089 84.1395 21.3319 84.0094C21.1694 83.9729 21.021 83.9282 20.887 83.8753C20.8463 83.8591 20.826 83.8388 20.826 83.8144V81.9311C20.826 81.8905 20.8463 81.8701 20.887 81.8701H21.3989C21.4396 81.8823 21.4599 81.8986 21.4599 81.9189L21.7098 83.3268C21.7138 83.339 21.722 83.3492 21.7341 83.3573L21.7646 83.3938C22.0572 83.5401 22.4635 83.6133 22.9836 83.6133C23.4956 83.6133 23.9242 83.4934 24.2696 83.2537C24.6637 82.9814 24.8608 82.5995 24.8608 82.1078C24.8608 81.4252 24.4057 80.8706 23.4956 80.4439L22.6727 80.06C22.0714 79.7796 21.6244 79.4931 21.3319 79.2006C20.9459 78.8146 20.7529 78.3595 20.7529 77.8353C20.7529 77.3112 20.9134 76.8459 21.2344 76.4396C21.5472 76.0455 21.9576 75.7651 22.4655 75.5985C22.7906 75.4929 23.1339 75.4401 23.4956 75.4401C23.9791 75.4401 24.4748 75.499 24.9827 75.6168C25.1208 75.6493 25.2712 75.69 25.4337 75.7387C25.4743 75.7468 25.4947 75.7672 25.4947 75.7997V77.6891C25.4947 77.7297 25.4743 77.75 25.4337 77.75H24.9461Z" fill="#EBAF2F"/>
<path d="M79.166 16V33.4752H40.4709V16H79.166ZM44.2156 29.7305H75.4213V19.7447H44.2156V29.7305Z" fill="#DAB850"/>
<path d="M78.3334 29.7305L112.663 68.4255H8.21936L42.5724 29.7305H78.3334ZM16.5523 64.6809H104.335L76.6512 33.4752H44.2558L16.5523 64.6809Z" fill="#DAB850"/>
<path d="M117.734 98.383V99.6312H66.569L59.8966 104L53.042 99.6312H2.39999V98.383H53.1489L59.9942 93.9932L66.4989 98.383H117.734Z" fill="#DAB850"/>
</svg>
