<svg width="147" height="147" viewBox="0 0 147 147" fill="none" xmlns="http://www.w3.org/2000/svg">
<rect width="147" height="147" rx="73.5" fill="black"/>
<path d="M104.021 88.2305C103.988 88.2305 103.972 88.2467 103.972 88.2793V91.1211C103.972 91.1536 103.988 91.1699 104.021 91.1699H104.602C105.78 91.1699 106.369 90.654 106.369 89.6221C106.369 89.1208 106.185 88.7562 105.817 88.5283C105.498 88.3298 105.062 88.2305 104.509 88.2305H104.021ZM104.68 87.7715C105.318 87.7715 105.799 87.8268 106.125 87.9375C106.949 88.2174 107.36 88.7985 107.36 89.6807C107.36 90.2699 107.097 90.7516 106.569 91.126C106.101 91.4548 105.557 91.6257 104.938 91.6387L103.972 91.4678V94.0117C103.972 94.041 103.988 94.0573 104.021 94.0605L104.968 94.1387C105.004 94.1419 105.021 94.1598 105.021 94.1924V94.4512C105.021 94.4837 105.004 94.5 104.968 94.5H102.18C102.147 94.5 102.131 94.4837 102.131 94.4512V94.1924C102.131 94.1566 102.147 94.1387 102.18 94.1387L103.029 94.0605C103.062 94.0605 103.078 94.0443 103.078 94.0117V88.2598C103.078 88.2272 103.062 88.2109 103.029 88.2109L102.18 88.1279C102.147 88.1279 102.131 88.1117 102.131 88.0791V87.8203C102.131 87.7878 102.147 87.7715 102.18 87.7715H104.68Z" fill="#EBAF2F"/>
<path d="M95.6709 88.2598C95.6709 88.2272 95.6546 88.2109 95.6221 88.2109L94.7822 88.1279C94.7497 88.1279 94.7334 88.1117 94.7334 88.0791V87.8203C94.7334 87.7878 94.7497 87.7715 94.7822 87.7715H97.4922C97.5247 87.7715 97.541 87.7878 97.541 87.8203V88.0791C97.541 88.1117 97.5247 88.1279 97.4922 88.1279L96.5938 88.2109C96.5579 88.2109 96.54 88.2272 96.54 88.2598V91.8682C96.54 92.3662 96.5677 92.7503 96.623 93.0205C96.6654 93.2288 96.7516 93.4079 96.8818 93.5576C97.2301 93.958 97.7331 94.1582 98.3906 94.1582C99.097 94.1582 99.6243 93.8783 99.9727 93.3184C100.083 93.1426 100.157 92.8675 100.192 92.4932C100.212 92.2913 100.222 92.0472 100.222 91.7607V88.2598C100.222 88.2272 100.205 88.2109 100.173 88.2109L99.3232 88.1279C99.2907 88.1279 99.2744 88.1117 99.2744 88.0791V87.8203C99.2744 87.7878 99.2907 87.7715 99.3232 87.7715H101.643C101.675 87.7715 101.691 87.7878 101.691 87.8203V88.0791C101.691 88.1117 101.675 88.1279 101.643 88.1279L100.822 88.2109C100.79 88.2109 100.773 88.2272 100.773 88.2598V91.7217C100.773 92.8154 100.549 93.5788 100.1 94.0117C99.6634 94.4316 99.0482 94.6416 98.2539 94.6416C97.3587 94.6416 96.6849 94.417 96.2324 93.9678C96.0339 93.7692 95.8971 93.5625 95.8223 93.3477C95.7214 93.0579 95.6709 92.6852 95.6709 92.2295V88.2598Z" fill="#EBAF2F"/>
<path d="M90.8418 87.6201C91.8509 87.6201 92.6663 87.9521 93.2881 88.6162C93.8968 89.264 94.2012 90.0957 94.2012 91.1113C94.2012 92.1204 93.8952 92.9554 93.2832 93.6162C92.6549 94.2998 91.8411 94.6416 90.8418 94.6416C89.8392 94.6416 89.0156 94.3112 88.3711 93.6504C87.7266 92.9896 87.4043 92.1562 87.4043 91.1504C87.4043 90.1348 87.7217 89.2949 88.3564 88.6309C89.0042 87.957 89.8327 87.6201 90.8418 87.6201ZM90.7246 88.0693C89.9759 88.0693 89.3851 88.3639 88.9521 88.9531C88.5648 89.4837 88.3711 90.1364 88.3711 90.9111C88.3711 91.4678 88.4655 91.9837 88.6543 92.459C88.8659 92.9863 89.1751 93.4079 89.582 93.7236C89.9889 94.0361 90.4528 94.1924 90.9736 94.1924C91.7256 94.1924 92.305 93.8896 92.7119 93.2842C93.0602 92.7601 93.2344 92.1025 93.2344 91.3115C93.2344 90.4261 93.0146 89.6758 92.5752 89.0605C92.1032 88.3997 91.4863 88.0693 90.7246 88.0693Z" fill="#EBAF2F"/>
<path d="M85.9297 89.4707C85.8971 89.4707 85.8809 89.4577 85.8809 89.4316L85.6807 88.3086C85.6807 88.2891 85.666 88.2728 85.6367 88.2598C85.3503 88.1328 85.041 88.0693 84.709 88.0693C84.3639 88.0693 84.071 88.1605 83.8301 88.3428C83.5632 88.5446 83.4297 88.8132 83.4297 89.1484C83.4297 89.4707 83.5485 89.7441 83.7861 89.9688C83.9456 90.1185 84.2061 90.2764 84.5674 90.4424L85.2168 90.7402C85.7246 90.9746 86.0941 91.2122 86.3252 91.4531C86.6149 91.7559 86.7598 92.1318 86.7598 92.5811C86.7598 93.2516 86.5026 93.7725 85.9883 94.1436C85.5293 94.4756 84.9531 94.6416 84.2598 94.6416C83.9049 94.6416 83.4964 94.5895 83.0342 94.4854C82.904 94.4561 82.7852 94.4202 82.6777 94.3779C82.6452 94.3649 82.6289 94.3486 82.6289 94.3291V92.8203C82.6289 92.7878 82.6452 92.7715 82.6777 92.7715H83.0879C83.1204 92.7812 83.1367 92.7943 83.1367 92.8105L83.3369 93.9385C83.3402 93.9482 83.3467 93.9564 83.3564 93.9629L83.3809 93.9922C83.6152 94.1094 83.9408 94.168 84.3574 94.168C84.7676 94.168 85.111 94.0719 85.3877 93.8799C85.7035 93.6618 85.8613 93.3558 85.8613 92.9619C85.8613 92.415 85.4967 91.9707 84.7676 91.6289L84.1084 91.3213C83.6266 91.0967 83.2686 90.8672 83.0342 90.6328C82.7249 90.3236 82.5703 89.959 82.5703 89.5391C82.5703 89.1191 82.6989 88.7464 82.9561 88.4209C83.2067 88.1051 83.5355 87.8805 83.9424 87.7471C84.2028 87.6624 84.4779 87.6201 84.7676 87.6201C85.1549 87.6201 85.5521 87.6673 85.959 87.7617C86.0697 87.7878 86.1901 87.8203 86.3203 87.8594C86.3529 87.8659 86.3691 87.8822 86.3691 87.9082V89.4219C86.3691 89.4544 86.3529 89.4707 86.3203 89.4707H85.9297Z" fill="#EBAF2F"/>
<path d="M75.9688 87.6201C76.9779 87.6201 77.7933 87.9521 78.415 88.6162C79.0238 89.264 79.3281 90.0957 79.3281 91.1113C79.3281 92.1204 79.0221 92.9554 78.4102 93.6162C77.7819 94.2998 76.9681 94.6416 75.9688 94.6416C74.9661 94.6416 74.1426 94.3112 73.498 93.6504C72.8535 92.9896 72.5312 92.1562 72.5312 91.1504C72.5312 90.1348 72.8486 89.2949 73.4834 88.6309C74.1312 87.957 74.9596 87.6201 75.9688 87.6201ZM75.8516 88.0693C75.1029 88.0693 74.512 88.3639 74.0791 88.9531C73.6917 89.4837 73.498 90.1364 73.498 90.9111C73.498 91.4678 73.5924 91.9837 73.7812 92.459C73.9928 92.9863 74.3021 93.4079 74.709 93.7236C75.1159 94.0361 75.5798 94.1924 76.1006 94.1924C76.8525 94.1924 77.432 93.8896 77.8389 93.2842C78.1872 92.7601 78.3613 92.1025 78.3613 91.3115C78.3613 90.4261 78.1416 89.6758 77.7021 89.0605C77.2301 88.3997 76.6133 88.0693 75.8516 88.0693Z" fill="#EBAF2F"/>
<path d="M71.7256 87.7715C71.7581 87.7715 71.7744 87.7878 71.7744 87.8203V88.0791C71.7744 88.1117 71.7581 88.1279 71.7256 88.1279L70.876 88.2109C70.8434 88.2109 70.8271 88.2272 70.8271 88.2598V94.0117C70.8271 94.0443 70.8434 94.0605 70.876 94.0605L71.7256 94.1387C71.7581 94.1387 71.7744 94.1566 71.7744 94.1924V94.4512C71.7744 94.4837 71.7581 94.5 71.7256 94.5H69.0352C69.0026 94.5 68.9863 94.4837 68.9863 94.4512V94.1924C68.9863 94.1566 69.0026 94.1387 69.0352 94.1387L69.8848 94.0605C69.9173 94.0605 69.9336 94.0443 69.9336 94.0117V88.2598C69.9336 88.2272 69.9173 88.2109 69.8848 88.2109L69.0352 88.1279C69.0026 88.1279 68.9863 88.1117 68.9863 88.0791V87.8203C68.9863 87.7878 69.0026 87.7715 69.0352 87.7715H71.7256Z" fill="#EBAF2F"/>
<path d="M63.5615 93.9922C63.5615 94.0247 63.5778 94.041 63.6104 94.041H64.3184C65.3242 94.041 66.055 93.8636 66.5107 93.5088C67.0218 93.1051 67.2773 92.415 67.2773 91.4385C67.2773 89.2998 66.3447 88.2305 64.4795 88.2305H63.6104C63.5778 88.2305 63.5615 88.2467 63.5615 88.2793V93.9922ZM62.6875 88.2988C62.6875 88.2663 62.6712 88.25 62.6387 88.25L61.7891 88.1719C61.7565 88.1719 61.7402 88.154 61.7402 88.1182V87.8203C61.7402 87.7878 61.7565 87.7715 61.7891 87.7715H64.4795C65.6318 87.7715 66.5303 88.0335 67.1748 88.5576C67.8779 89.1273 68.2295 89.9753 68.2295 91.1016C68.2295 93.3672 66.929 94.5 64.3281 94.5H61.7891C61.7565 94.5 61.7402 94.4837 61.7402 94.4512V94.1484C61.7402 94.1159 61.7565 94.0996 61.7891 94.0996L62.6387 94.0215C62.6712 94.0215 62.6875 94.0036 62.6875 93.9678V88.2988Z" fill="#EBAF2F"/>
<path d="M55.2803 88.2598C55.2803 88.2272 55.264 88.2109 55.2314 88.2109L54.3916 88.1279C54.359 88.1279 54.3428 88.1117 54.3428 88.0791V87.8203C54.3428 87.7878 54.359 87.7715 54.3916 87.7715H57.1016C57.1341 87.7715 57.1504 87.7878 57.1504 87.8203V88.0791C57.1504 88.1117 57.1341 88.1279 57.1016 88.1279L56.2031 88.2109C56.1673 88.2109 56.1494 88.2272 56.1494 88.2598V91.8682C56.1494 92.3662 56.1771 92.7503 56.2324 93.0205C56.2747 93.2288 56.361 93.4079 56.4912 93.5576C56.8395 93.958 57.3424 94.1582 58 94.1582C58.7064 94.1582 59.2337 93.8783 59.582 93.3184C59.6927 93.1426 59.766 92.8675 59.8018 92.4932C59.8213 92.2913 59.8311 92.0472 59.8311 91.7607V88.2598C59.8311 88.2272 59.8148 88.2109 59.7822 88.2109L58.9326 88.1279C58.9001 88.1279 58.8838 88.1117 58.8838 88.0791V87.8203C58.8838 87.7878 58.9001 87.7715 58.9326 87.7715H61.252C61.2845 87.7715 61.3008 87.7878 61.3008 87.8203V88.0791C61.3008 88.1117 61.2845 88.1279 61.252 88.1279L60.4316 88.2109C60.3991 88.2109 60.3828 88.2272 60.3828 88.2598V91.7217C60.3828 92.8154 60.1582 93.5788 59.709 94.0117C59.2728 94.4316 58.6576 94.6416 57.8633 94.6416C56.9681 94.6416 56.2943 94.417 55.8418 93.9678C55.6432 93.7692 55.5065 93.5625 55.4316 93.3477C55.3307 93.0579 55.2803 92.6852 55.2803 92.2295V88.2598Z" fill="#EBAF2F"/>
<path d="M53.9375 87.7715C53.9701 87.7715 53.9863 87.7878 53.9863 87.8203V89.3877C53.9863 89.4235 53.9701 89.4414 53.9375 89.4414H53.5664C53.5339 89.4414 53.5176 89.4284 53.5176 89.4023L53.3174 88.2695C53.3174 88.2435 53.3011 88.2305 53.2686 88.2305H51.6475C51.6214 88.2305 51.6084 88.2467 51.6084 88.2793V94.0117C51.6084 94.041 51.6247 94.0573 51.6572 94.0605L52.6045 94.1387C52.6403 94.1419 52.6582 94.1598 52.6582 94.1924V94.4512C52.6582 94.4837 52.6403 94.5 52.6045 94.5H49.7383C49.7025 94.5 49.6846 94.4837 49.6846 94.4512V94.1924C49.6846 94.1598 49.7025 94.1419 49.7383 94.1387L50.6855 94.0605C50.7181 94.0573 50.7344 94.041 50.7344 94.0117V88.2793C50.7344 88.2467 50.7214 88.2305 50.6953 88.2305H49.0742C49.0417 88.2305 49.0254 88.2435 49.0254 88.2695L48.8252 89.4023C48.8252 89.4284 48.8089 89.4414 48.7764 89.4414H48.4053C48.3727 89.4414 48.3564 89.4235 48.3564 89.3877V87.8203C48.3564 87.7878 48.3727 87.7715 48.4053 87.7715H53.9375Z" fill="#EBAF2F"/>
<path d="M47.0625 89.4707C47.0299 89.4707 47.0137 89.4577 47.0137 89.4316L46.8135 88.3086C46.8135 88.2891 46.7988 88.2728 46.7695 88.2598C46.4831 88.1328 46.1738 88.0693 45.8418 88.0693C45.4967 88.0693 45.2038 88.1605 44.9629 88.3428C44.696 88.5446 44.5625 88.8132 44.5625 89.1484C44.5625 89.4707 44.6813 89.7441 44.9189 89.9688C45.0785 90.1185 45.3389 90.2764 45.7002 90.4424L46.3496 90.7402C46.8574 90.9746 47.2269 91.2122 47.458 91.4531C47.7477 91.7559 47.8926 92.1318 47.8926 92.5811C47.8926 93.2516 47.6354 93.7725 47.1211 94.1436C46.6621 94.4756 46.0859 94.6416 45.3926 94.6416C45.0378 94.6416 44.6292 94.5895 44.167 94.4854C44.0368 94.4561 43.918 94.4202 43.8105 94.3779C43.778 94.3649 43.7617 94.3486 43.7617 94.3291V92.8203C43.7617 92.7878 43.778 92.7715 43.8105 92.7715H44.2207C44.2533 92.7812 44.2695 92.7943 44.2695 92.8105L44.4697 93.9385C44.473 93.9482 44.4795 93.9564 44.4893 93.9629L44.5137 93.9922C44.748 94.1094 45.0736 94.168 45.4902 94.168C45.9004 94.168 46.2438 94.0719 46.5205 93.8799C46.8363 93.6618 46.9941 93.3558 46.9941 92.9619C46.9941 92.415 46.6296 91.9707 45.9004 91.6289L45.2412 91.3213C44.7594 91.0967 44.4014 90.8672 44.167 90.6328C43.8577 90.3236 43.7031 89.959 43.7031 89.5391C43.7031 89.1191 43.8317 88.7464 44.0889 88.4209C44.3395 88.1051 44.6683 87.8805 45.0752 87.7471C45.3356 87.6624 45.6107 87.6201 45.9004 87.6201C46.2878 87.6201 46.6849 87.6673 47.0918 87.7617C47.2025 87.7878 47.3229 87.8203 47.4531 87.8594C47.4857 87.8659 47.502 87.8822 47.502 87.9082V89.4219C47.502 89.4544 47.4857 89.4707 47.4531 89.4707H47.0625Z" fill="#EBAF2F"/>
<path d="M90.5 40V54H59.5V40H90.5ZM62.5 51H87.5V43H62.5V51Z" fill="#DAB850"/>
<path d="M89.833 51L117.336 82H33.6621L61.1836 51H89.833ZM40.3379 79H110.664L88.4854 54H62.5322L40.3379 79Z" fill="#DAB850"/>
<path d="M121.398 106V107H80.4081L75.0626 110.5L69.5711 107H29V106H69.6568L75.1408 102.483L80.352 106H121.398Z" fill="#DAB850"/>
</svg>
